<?xml version="1.0" encoding="UTF-8"?>
<svg version="1.1" xmlns="http://www.w3.org/2000/svg" width="500" height="500">
<path d="M0 0 C28.51000929 25.28975221 45.81704139 59.66071033 49.28125 97.67578125 C49.55928988 102.94835072 49.62266847 108.20967102 49.59375 113.48828125 C49.59101578 114.53352463 49.59101578 114.53352463 49.58822632 115.59988403 C49.54030721 126.51841581 48.97527281 137.05601628 46.28125 147.67578125 C46.10432617 148.38154297 45.92740234 149.08730469 45.74511719 149.81445312 C38.57009569 177.59752428 25.17751896 201.79884248 4.28125 221.67578125 C3.62253906 222.31773437 2.96382813 222.9596875 2.28515625 223.62109375 C-22.9444433 247.40071632 -53.83515764 255.94309336 -87.92684937 254.99363708 C-120.83366478 253.68876428 -149.07238948 234.89031403 -170.94677734 211.62988281 C-190.86763139 189.66150092 -200.9614255 161.50339058 -205.71875 132.67578125 C-212.76189848 130.20042877 -219.83705242 128.33939527 -227.10058594 126.62890625 C-228.30996826 126.34067993 -229.51935059 126.05245361 -230.76538086 125.75549316 C-234.05831894 124.97155226 -237.35206909 124.19120868 -240.64625072 123.41252136 C-244.11350628 122.59202767 -247.57966813 121.76693856 -251.04595947 120.94238281 C-256.86887981 119.5578948 -262.69248531 118.17632317 -268.51660156 116.796875 C-276.69035227 114.86091194 -284.86289807 112.9199024 -293.03518248 110.97776031 C-304.6291125 108.22274006 -316.22364986 105.47027626 -327.81933594 102.72265625 C-328.936651 102.45763306 -330.05396606 102.19260986 -331.20513916 101.91955566 C-332.27018677 101.66734253 -333.33523438 101.41512939 -334.43255615 101.15527344 C-335.45677422 100.91240601 -336.48099228 100.66953857 -337.53624725 100.41931152 C-339.8129767 99.88739768 -342.09248583 99.36732621 -344.37372589 98.85510254 C-345.55800926 98.58870972 -346.74229263 98.32231689 -347.96246338 98.04785156 C-349.04102726 97.80850891 -350.11959114 97.56916626 -351.23083878 97.3225708 C-353.71875 96.67578125 -353.71875 96.67578125 -354.71875 95.67578125 C-354.81397418 92.81486307 -354.84428326 89.97814504 -354.83227539 87.11694336 C-354.83242142 86.21946884 -354.83256744 85.32199432 -354.8327179 84.39732361 C-354.83201842 81.41589991 -354.82422441 78.43453785 -354.81640625 75.453125 C-354.81454219 73.39189183 -354.81311823 71.33065821 -354.81211853 69.26942444 C-354.80829237 63.83274115 -354.79846126 58.39608439 -354.78741455 52.95941162 C-354.77720253 47.41630411 -354.77262136 41.87319233 -354.76757812 36.33007812 C-354.75683908 25.44530082 -354.73976149 14.56054323 -354.71875 3.67578125 C-346.61702117 1.73004843 -338.53394392 0.02179678 -330.30859375 -1.3046875 C-329.24810822 -1.47846924 -328.18762268 -1.65225098 -327.09500122 -1.83129883 C-323.61643774 -2.39798076 -320.13659619 -2.95609498 -316.65625 -3.51171875 C-315.44057343 -3.70641754 -314.22489685 -3.90111633 -312.97238159 -4.10171509 C-268.66501967 -11.16950613 -224.19933799 -16.75798516 -179.56640625 -21.29296875 C-178.0208606 -21.45168205 -178.0208606 -21.45168205 -176.4440918 -21.61360168 C-175.49453613 -21.70824203 -174.54498047 -21.80288239 -173.56665039 -21.90039062 C-172.74612686 -21.98285034 -171.92560333 -22.06531006 -171.08021545 -22.15026855 C-168.61791921 -22.33164614 -166.186809 -22.35397609 -163.71875 -22.32421875 C-163.26163468 -20.72431514 -162.80452071 -19.12441114 -162.34741211 -17.52450562 C-161.93760279 -16.09019367 -161.52777141 -14.65588803 -161.11791992 -13.22158813 C-159.98386559 -9.25276977 -158.85020628 -5.28383927 -157.71728516 -1.31469727 C-155.72581004 5.66103212 -153.73330705 12.63636045 -151.71875 19.60546875 C-151.29843506 21.06303589 -151.29843506 21.06303589 -150.86962891 22.55004883 C-150.36365754 24.30311703 -149.8556175 26.05558988 -149.34521484 27.80737305 C-147.71875 33.45226809 -147.71875 33.45226809 -147.71875 35.67578125 C-141.34668828 35.7010795 -134.97463946 35.71862621 -128.60253906 35.73071289 C-126.43358883 35.73575016 -124.264642 35.74258016 -122.09570312 35.7512207 C-118.98306437 35.76331276 -115.8704704 35.76901553 -112.7578125 35.7734375 C-111.783815 35.77859879 -110.8098175 35.78376007 -109.80630493 35.78907776 C-108.45513077 35.78919106 -108.45513077 35.78919106 -107.07666016 35.78930664 C-106.28168121 35.79152725 -105.48670227 35.79374786 -104.66763306 35.79603577 C-102.63785433 35.7983665 -102.63785433 35.7983665 -100.71875 34.67578125 C-100.49839744 28.04307091 -101.34302128 21.88012179 -102.46875 15.3515625 C-102.64631836 14.28713425 -102.82388672 13.22270599 -103.00683594 12.12602234 C-103.57136997 8.74571667 -104.14435891 5.36692483 -104.71875 1.98828125 C-105.29228473 -1.40120316 -105.86389245 -4.79097272 -106.43066406 -8.18159485 C-106.7826372 -10.28579812 -107.1385963 -12.38933952 -107.49902344 -14.49211121 C-107.65918945 -15.44692886 -107.81935547 -16.40174652 -107.984375 -17.38549805 C-108.19755371 -18.63836861 -108.19755371 -18.63836861 -108.41503906 -19.91654968 C-108.72971708 -22.41116031 -108.77135775 -24.8125658 -108.71875 -27.32421875 C-67.79033133 -31.78030255 -32.23223296 -27.55485433 0 0 Z M-133.71875 81.67578125 C-134.41871094 82.36285156 -135.11867187 83.04992187 -135.83984375 83.7578125 C-150.41872076 99.07557996 -157.27329422 119.69900609 -157.06982422 140.56713867 C-156.39413994 164.10977461 -146.60646962 184.34341265 -129.71875 200.67578125 C-119.13421996 209.84904062 -105.51301608 216.99233077 -91.71875 219.67578125 C-90.8421875 219.85625 -89.965625 220.03671875 -89.0625 220.22265625 C-67.2006832 223.1852389 -46.28850866 218.90913069 -27.8125 206.765625 C-25.31838386 204.84373488 -23.01700845 202.82750644 -20.71875 200.67578125 C-19.80609375 199.85335937 -18.8934375 199.0309375 -17.953125 198.18359375 C-3.09837766 184.18116798 6.23635807 164.41345888 7.44140625 143.95703125 C8.10430661 120.66905335 0.04404728 98.86692262 -15.71875 81.67578125 C-31.73757775 65.44959003 -52.02297867 56.91905425 -74.71875 56.30078125 C-97.64188084 56.92524792 -117.36217565 65.59227158 -133.71875 81.67578125 Z " fill="#002060" transform="translate(362.71875,60.32421875)"/>
<path d="M0 0 C17.19425122 9.76946092 29.40368052 34.30386429 34.75 52.5625 C39.68825248 71.10484157 34.12521238 90.44030085 24.94775391 106.59863281 C1.80754899 144.53989012 -43.41374319 164.28528263 -84.8125 174.375 C-130.65878237 184.87067689 -177.49805287 182.94692054 -224.15869141 181.91870117 C-281.64976782 177.96662857 -281.64976782 177.96662857 -333.1875 198.125 C-334.2084375 199.3315625 -334.2084375 199.3315625 -335.25 200.5625 C-335.95125 201.243125 -336.6525 201.92375 -337.375 202.625 C-342.53653992 210.71141254 -343.13592963 220.33673614 -341.25 229.5625 C-338.90078523 236.87609314 -335.63638463 242.44670404 -328.8125 246.25 C-302.25033146 258.56024478 -268.20391877 243.72752372 -242.70404053 234.47119141 C-221.3375237 226.55951676 -200.48344125 217.26240302 -179.60144043 208.17037964 C-165.96091517 202.23676196 -152.26843521 196.55713073 -138.25 191.5625 C-137.49509277 191.28341797 -136.74018555 191.00433594 -135.96240234 190.71679688 C-116.75260666 183.75408067 -94.97918839 184.11467323 -74.78125 182.8203125 C-73.30915825 182.72512833 -73.30915825 182.72512833 -71.80732727 182.62802124 C-66.99619543 182.31785466 -62.18494482 182.01745782 -57.37182617 181.73974609 C-48.20253769 181.18928286 -39.121578 180.40243159 -30.0234375 179.1171875 C-29.189832 178.9999231 -28.3562265 178.88265869 -27.49736023 178.76184082 C-5.48533724 175.47014793 17.12295348 168.35389654 31.75 150.5625 C44.23481774 133.41877752 48.64068942 115.55419953 46.75 94.5625 C46.0163339 90.48804869 44.81070503 86.58084137 43.640625 82.61328125 C41.72381635 75.16591588 42.45193258 67.17977844 42.75 59.5625 C45.86697758 62.45057454 47.23707241 65.59213397 48.75 69.5 C49.14191528 70.49773437 49.14191528 70.49773437 49.54174805 71.515625 C58.57482884 95.10028024 58.71608122 122.21198421 49.1328125 145.625 C47.09291085 149.95835039 44.65366547 153.76366305 41.75 157.5625 C41.33492188 158.14128906 40.91984375 158.72007812 40.4921875 159.31640625 C25.01491949 179.28856947 -3.20053975 188.65881986 -27.171875 192.0546875 C-28.53111858 192.22501041 -29.89050886 192.39416448 -31.25 192.5625 C-32.55904297 192.72911133 -33.86808594 192.89572266 -35.21679688 193.06738281 C-41.08694851 193.71341222 -46.95926013 193.8404553 -52.859375 193.9921875 C-55.33204575 194.06592161 -57.80470159 194.14015698 -60.27734375 194.21484375 C-64.12049673 194.32740472 -67.96362927 194.43655306 -71.80712891 194.53662109 C-92.78030228 195.09275879 -113.19138806 196.11380178 -133.2109375 202.859375 C-134.04463867 203.13974609 -134.87833984 203.42011719 -135.73730469 203.70898438 C-136.56649414 203.99064453 -137.39568359 204.27230469 -138.25 204.5625 C-139.05856445 204.83126953 -139.86712891 205.10003906 -140.70019531 205.37695312 C-167.9374829 214.51002697 -194.34271221 226.81057454 -220.35546875 238.94140625 C-299.5902977 275.7235739 -299.5902977 275.7235739 -332.44921875 263.82421875 C-343.88819728 258.67109453 -350.42115196 251.00595876 -355.25 239.5625 C-358.92380818 229.24084846 -358.47412626 217.51861256 -354.5703125 207.3359375 C-346.43409805 190.24507283 -330.13489976 178.11024743 -312.56640625 171.84375 C-299.13373537 167.56170555 -284.29348031 165.83322519 -270.25 165.5625 C-269.4132373 165.54203613 -268.57647461 165.52157227 -267.71435547 165.50048828 C-252.20550696 165.17463819 -236.76378691 165.74955516 -221.27307129 166.42111206 C-108.85089088 171.51712009 -108.85089088 171.51712009 -10.25 123.5625 C-9.61964844 123.06492187 -8.98929687 122.56734375 -8.33984375 122.0546875 C5.48574284 111.03201026 17.68873191 92.05462113 20.75 74.5625 C23.13982336 50.71141762 15.38543797 33.11588768 0.75 14.5625 C0.03457031 13.69882813 -0.68085938 12.83515625 -1.41796875 11.9453125 C-2.38669922 10.76582031 -2.38669922 10.76582031 -3.375 9.5625 C-3.95507812 8.881875 -4.53515625 8.20125 -5.1328125 7.5 C-6.25 5.5625 -6.25 5.5625 -6.1171875 3.4375 C-4.75582479 0.49401305 -3.22048662 -0.62620573 0 0 Z " fill="#002060" transform="translate(437.25,198.4375)"/>
<path d="M0 0 C9.15212058 2.80724053 16.30079215 6.16548925 21 15 C21.75 17.875 21.75 17.875 22 20 C20.96875 19.938125 19.9375 19.87625 18.875 19.8125 C14.65401773 20.01674108 12.50836251 20.68767016 9 23 C6.28685785 26.063225 6.01002676 27.6941839 5.875 31.8125 C6.72721393 37.0761743 10.31896969 40.38624701 14 44 C12.29844492 47.78556979 10.75114747 49.12442627 7 51 C3.86179776 51.98819985 1.03050775 52.10566458 -2.25 52.0625 C-3.14203125 52.05347656 -4.0340625 52.04445312 -4.953125 52.03515625 C-5.62859375 52.02355469 -6.3040625 52.01195312 -7 52 C-6.21140371 45.81444782 -4.88126895 39.82705106 -3.4609375 33.75976562 C-1.57599196 25.52367895 -0.83204125 17.42119187 -0.4375 9 C-0.37272461 7.69482422 -0.37272461 7.69482422 -0.30664062 6.36328125 C-0.20175782 4.24231781 -0.10049925 2.12117567 0 0 Z " fill="#002060" transform="translate(419,172)"/>
</svg>
