<?xml version="1.0" encoding="UTF-8"?>
<svg version="1.1" xmlns="http://www.w3.org/2000/svg" width="500" height="500">
<path d="M0 0 C165 0 330 0 500 0 C500 165 500 330 500 500 C335 500 170 500 0 500 C0 335 0 170 0 0 Z " fill="#002060" transform="translate(0,0)"/>
<path d="M0 0 C2.18158417 1.11848242 4.27596738 2.32682366 6.37451172 3.59423828 C7.15745605 4.04831055 7.94040039 4.50238281 8.74707031 4.97021484 C11.15349813 6.37061744 13.54555597 7.79345706 15.93701172 9.21923828 C17.30459975 10.02025867 18.67304823 10.81981237 20.04248047 11.61767578 C22.80209548 13.22927479 25.55514287 14.85141464 28.30419922 16.48095703 C33.58328131 19.60730339 38.88529295 22.69398603 44.18701172 25.78173828 C50.79931681 29.6343229 57.40823929 33.49249346 64.00732422 37.36767578 C64.60500107 37.71861801 65.20267792 38.06956024 65.81846619 38.43113708 C66.41985916 38.78426468 67.02125214 39.13739227 67.64086914 39.5012207 C78.19540219 45.69856966 88.76573349 51.86502505 99.37451172 57.96923828 C107.65649337 62.74176652 115.93621565 67.51794831 124.18701172 72.34423828 C125.53557251 73.12492676 125.53557251 73.12492676 126.91137695 73.92138672 C139.25537599 81.17433111 139.25537599 81.17433111 140.93701172 86.21923828 C141.33431793 90.29926741 141.3565364 94.01660087 139.99951172 97.90673828 C136.80733922 101.48584078 133.01578243 103.73774841 128.93701172 106.21923828 C127.44621094 107.13769531 127.44621094 107.13769531 125.92529297 108.07470703 C116.59049503 113.77258855 107.08817381 119.18843435 97.61035156 124.64331055 C89.5303252 129.29440839 81.48322957 133.9968617 73.45458984 138.73583984 C67.93311613 141.98918297 62.40334735 145.22842732 56.87451172 148.46923828 C56.25065582 148.8349292 55.62679993 149.20062012 54.98403931 149.57739258 C48.45885819 153.40189976 41.93208292 157.22366485 35.40185547 161.03955078 C34.38244873 161.63525879 33.36304199 162.2309668 32.31274414 162.84472656 C30.3316045 163.99978691 28.34872445 165.15186793 26.36401367 166.30078125 C21.72937305 168.98562774 17.1271494 171.70466103 12.57763672 174.53173828 C11.7289502 175.04945801 10.88026367 175.56717773 10.00585938 176.10058594 C8.44230291 177.05621415 6.88868302 178.02841869 5.34863281 179.02148438 C0.00376962 182.25397698 -4.83509263 183.28886809 -11.06298828 182.21923828 C-14.93414941 180.20799821 -17.50730039 177.28203582 -19.06298828 173.21923828 C-19.32025719 170.16694069 -19.32025719 170.16694069 -19.33041382 166.51455688 C-19.33494493 165.84158644 -19.33947604 165.168616 -19.34414446 164.47525251 C-19.35679958 162.2213875 -19.35516741 159.96776379 -19.35351562 157.71386719 C-19.35950018 156.09741403 -19.36630556 154.48096374 -19.37387085 152.86451721 C-19.39154531 148.4739801 -19.39622683 144.08352093 -19.39750242 139.69295168 C-19.3994016 136.02744898 -19.40675934 132.36196443 -19.41384661 128.69646871 C-19.43013361 120.04812473 -19.43501528 111.3998224 -19.43359375 102.75146484 C-19.43239216 93.83094304 -19.4534967 84.91066313 -19.48508108 75.99020255 C-19.5112344 68.33063196 -19.52196145 60.67114041 -19.52068293 53.01152551 C-19.52017303 48.43715881 -19.52587193 43.86300706 -19.54703903 39.28868484 C-19.56640561 34.98597107 -19.56655686 30.68367764 -19.55200577 26.38094902 C-19.5499146 24.80315347 -19.55463693 23.22533172 -19.56672668 21.6475811 C-19.58218294 19.49052319 -19.5728707 17.33491406 -19.5574646 15.17788696 C-19.55855413 13.97184626 -19.55964367 12.76580555 -19.56076622 11.52321815 C-18.82386785 6.63208661 -16.57644495 3.48045217 -12.81298828 0.34423828 C-8.52300326 -1.41075559 -4.33600735 -1.64101201 0 0 Z " fill="#FEFEFE" transform="translate(207.06298828125,159.78076171875)"/>
<path d="M0 0 C1.6394588 3.27891759 2.85412346 6.42159417 4.00268555 9.88793945 C9.4017462 26.04984496 18.44300327 39.61568366 33 49 C33.75667969 49.51046875 34.51335938 50.0209375 35.29296875 50.546875 C43.43592321 55.77700791 52.33285664 59.12116879 62 60 C62 60.33 62 60.66 62 61 C41.54 61 21.08 61 0 61 C0 40.87 0 20.74 0 0 Z " fill="#FAFBFC" transform="translate(0,439)"/>
<path d="M0 0 C0.33 0 0.66 0 1 0 C1 20.46 1 40.92 1 62 C-19.46 62 -39.92 62 -61 62 C-61 61.67 -61 61.34 -61 61 C-59.52853516 60.70609375 -59.52853516 60.70609375 -58.02734375 60.40625 C-39.94521903 56.51424489 -23.54518351 47.78496649 -12.9140625 32.14453125 C-6.64487452 21.845151 -1.97002492 11.98431825 0 0 Z " fill="#FAFBFC" transform="translate(499,438)"/>
<path d="M0 0 C19.47 0 38.94 0 59 0 C59 19.8 59 39.6 59 60 C57.28686305 56.5737261 56.35078515 53.78191446 55.375 50.125 C51.49575363 37.4033538 44.5511334 27.14281357 35 18 C34.34 17.67 33.68 17.34 33 17 C33 16.34 33 15.68 33 15 C32.27167969 14.72929687 31.54335938 14.45859375 30.79296875 14.1796875 C28.08417665 13.03555433 25.78738259 11.704016 23.3125 10.125 C15.94327207 5.63557436 8.39907549 2.86646122 0 1 C0 0.67 0 0.34 0 0 Z " fill="#FBFBFC" transform="translate(441,0)"/>
<path d="M0 0 C19.14 0 38.28 0 58 0 C58 0.33 58 0.66 58 1 C57.17757812 1.23074219 56.35515625 1.46148437 55.5078125 1.69921875 C34.43825112 7.85464488 18.77377638 19.74091048 8 39 C4.49998021 46.1385628 2.16588817 53.1346052 1 61 C0.67 61 0.34 61 0 61 C0 40.87 0 20.74 0 0 Z " fill="#FCFCFD" transform="translate(0,0)"/>
</svg>
