<?xml version="1.0" encoding="UTF-8"?>
<svg version="1.1" xmlns="http://www.w3.org/2000/svg" width="500" height="500">
<path d="M0 0 C1.06004242 -0.00281982 2.12008484 -0.00563965 3.21224976 -0.00854492 C4.38011017 -0.00652069 5.54797058 -0.00449646 6.7512207 -0.00241089 C7.97725006 -0.00416321 9.20327942 -0.00591553 10.46646118 -0.00772095 C13.83415976 -0.01137546 17.20179715 -0.01050836 20.56949234 -0.00734186 C24.08929783 -0.00481495 27.60910066 -0.00715673 31.12890625 -0.00872803 C37.04045076 -0.01054875 42.95198278 -0.00814595 48.86352539 -0.00338745 C55.70384185 0.00205499 62.5441285 0.00029226 69.38444424 -0.00521386 C75.25113652 -0.00974774 81.11781982 -0.01039418 86.98451328 -0.00777519 C90.49117585 -0.00621394 93.99782441 -0.00601451 97.50448608 -0.00931168 C101.41226363 -0.01272915 105.32000763 -0.00799613 109.2277832 -0.00241089 C110.39564362 -0.00443512 111.56350403 -0.00645935 112.76675415 -0.00854492 C113.82679657 -0.0057251 114.88683899 -0.00290527 115.97900391 0 C116.90373001 0.00037703 117.82845612 0.00075405 118.78120422 0.0011425 C120.98950195 0.12698364 120.98950195 0.12698364 122.98950195 1.12698364 C126.49541615 1.56707203 130.00080459 1.94231366 133.5168457 2.28909302 C137.94454977 2.7643178 141.7606713 3.6664482 145.98950195 5.12698364 C147.30950195 5.12698364 148.62950195 5.12698364 149.98950195 5.12698364 C149.98950195 5.78698364 149.98950195 6.44698364 149.98950195 7.12698364 C150.50512695 6.92073364 151.02075195 6.71448364 151.55200195 6.50198364 C157.09327486 5.64948012 163.66139607 8.97438951 168.92700195 10.75198364 C169.61084961 10.98143677 170.29469727 11.21088989 170.99926758 11.44729614 C172.66314659 12.00580099 174.32639214 12.56619243 175.98950195 13.12698364 C175.98950195 13.78698364 175.98950195 14.44698364 175.98950195 15.12698364 C177.47450195 14.63198364 177.47450195 14.63198364 178.98950195 14.12698364 C178.98950195 14.78698364 178.98950195 15.44698364 178.98950195 16.12698364 C180.47450195 15.63198364 180.47450195 15.63198364 181.98950195 15.12698364 C183.78637695 15.79885864 183.78637695 15.79885864 185.73950195 16.87698364 C188.25156382 18.21735785 190.66338401 19.40670827 193.30200195 20.50198364 C197.50807875 22.2577313 201.4374221 24.50895367 205.41918945 26.71682739 C207.31287898 27.75576648 209.23752345 28.73875888 211.17700195 29.68948364 C214.89952514 31.59210661 218.66869084 33.5731619 221.98950195 36.12698364 C221.98950195 36.78698364 221.98950195 37.44698364 221.98950195 38.12698364 C222.97950195 38.12698364 223.96950195 38.12698364 224.98950195 38.12698364 C224.98950195 38.78698364 224.98950195 39.44698364 224.98950195 40.12698364 C226.16512695 40.56010864 226.16512695 40.56010864 227.36450195 41.00198364 C229.98950195 42.12698364 229.98950195 42.12698364 231.98950195 44.12698364 C232.64950195 44.45698364 233.30950195 44.78698364 233.98950195 45.12698364 C233.98950195 45.78698364 233.98950195 46.44698364 233.98950195 47.12698364 C234.97950195 47.12698364 235.96950195 47.12698364 236.98950195 47.12698364 C236.98950195 47.78698364 236.98950195 48.44698364 236.98950195 49.12698364 C237.62887695 49.39510864 238.26825195 49.66323364 238.92700195 49.93948364 C240.98950195 51.12698364 240.98950195 51.12698364 241.98950195 54.12698364 C243.32035818 54.4700734 244.65402678 54.80233774 245.98950195 55.12698364 C247.5168457 56.58010864 247.5168457 56.58010864 248.92700195 58.37698364 C250.81443962 60.71472369 252.63964988 62.76268384 254.80200195 64.87698364 C256.98950195 67.12698364 256.98950195 67.12698364 257.98950195 70.12698364 C258.64950195 70.12698364 259.30950195 70.12698364 259.98950195 70.12698364 C263.98950195 75.53874835 263.98950195 75.53874835 263.98950195 78.12698364 C264.64950195 78.12698364 265.30950195 78.12698364 265.98950195 78.12698364 C267.50512695 80.18167114 267.50512695 80.18167114 269.23950195 83.00198364 C269.86598633 84.02034302 270.4924707 85.03870239 271.13793945 86.08792114 C271.74895508 87.09081177 272.3599707 88.09370239 272.98950195 89.12698364 C273.47676758 89.88237427 273.9640332 90.63776489 274.46606445 91.41604614 C278.03555264 97.05942691 280.93532029 102.98093278 283.80200195 109.00198364 C284.1995166 109.83536255 284.59703125 110.66874146 285.0065918 111.52737427 C285.37864746 112.32079224 285.75070312 113.11421021 286.1340332 113.93167114 C286.63447144 114.99877319 286.63447144 114.99877319 287.14501953 116.08743286 C287.98202665 118.10892967 288.61723067 119.97024112 288.98950195 122.12698364 C288.65950195 122.78698364 288.32950195 123.44698364 287.98950195 124.12698364 C288.64950195 124.45698364 289.30950195 124.78698364 289.98950195 125.12698364 C290.92199305 127.41636883 291.73363064 129.65430944 292.48950195 132.00198364 C292.71162354 132.67874146 292.93374512 133.35549927 293.16259766 134.05276489 C294.71082306 138.90796305 295.80654884 143.72260047 296.58325195 148.76370239 C296.98340115 151.40131346 296.98340115 151.40131346 298.17700195 154.93948364 C299.06318042 158.41602992 298.83242497 160.67099927 297.98950195 164.12698364 C298.64950195 164.12698364 299.30950195 164.12698364 299.98950195 164.12698364 C299.65950195 166.76698364 299.32950195 169.40698364 298.98950195 172.12698364 C299.64950195 172.12698364 300.30950195 172.12698364 300.98950195 172.12698364 C301.94384393 181.87257608 302.14546453 191.52773445 302.11987305 201.31155396 C302.11449465 203.75530148 302.11986189 206.19886652 302.1262207 208.64260864 C302.1310128 218.58973516 301.98175372 228.34481496 299.98950195 238.12698364 C299.82509164 239.75020932 299.67932019 241.37542826 299.55200195 243.00198364 C299.15101957 247.24989074 298.23154686 251.03554158 296.98950195 255.12698364 C296.66252132 256.70739003 296.35122753 258.29108808 296.05200195 259.87698364 C294.7926381 266.4036868 293.0915215 272.82092501 290.98950195 279.12698364 C290.32950195 279.12698364 289.66950195 279.12698364 288.98950195 279.12698364 C289.31950195 280.11698364 289.64950195 281.10698364 289.98950195 282.12698364 C289.32950195 282.12698364 288.66950195 282.12698364 287.98950195 282.12698364 C288.31950195 283.11698364 288.64950195 284.10698364 288.98950195 285.12698364 C288.32950195 285.12698364 287.66950195 285.12698364 286.98950195 285.12698364 C287.31950195 286.11698364 287.64950195 287.10698364 287.98950195 288.12698364 C287.31762695 289.95901489 287.31762695 289.95901489 286.23950195 291.93948364 C285.67682617 292.99909302 285.67682617 292.99909302 285.1027832 294.08010864 C284.55170898 295.09331177 284.55170898 295.09331177 283.98950195 296.12698364 C281.80835862 300.40202458 279.84690464 304.70459629 277.98950195 309.12698364 C277.32950195 309.12698364 276.66950195 309.12698364 275.98950195 309.12698364 C275.88637695 309.68128052 275.78325195 310.23557739 275.67700195 310.80667114 C274.84485089 313.615181 273.5333184 315.7655485 271.98950195 318.25198364 C269.88528743 321.63157415 269.88528743 321.63157415 267.98950195 325.12698364 C267.32950195 325.12698364 266.66950195 325.12698364 265.98950195 325.12698364 C265.68012695 326.14792114 265.68012695 326.14792114 265.36450195 327.18948364 C263.83129226 330.46497709 261.95323505 332.69846937 259.5559082 335.37307739 C258.18475571 336.90835787 256.89217721 338.51307805 255.61450195 340.12698364 C252.90481937 343.22376374 250.02422008 345.80755567 246.8996582 348.47073364 C245.35121859 349.81334795 243.87618765 351.24029794 242.42700195 352.68948364 C234.48950195 360.62698364 234.48950195 360.62698364 229.98950195 362.12698364 C229.65950195 363.11698364 229.32950195 364.10698364 228.98950195 365.12698364 C224.65616862 368.12698364 224.65616862 368.12698364 221.98950195 368.12698364 C221.65950195 368.78698364 221.32950195 369.44698364 220.98950195 370.12698364 C219.54592398 371.21743589 218.06026461 372.25291046 216.55200195 373.25198364 C215.74891602 373.79081177 214.94583008 374.32963989 214.1184082 374.88479614 C211.98950195 376.12698364 211.98950195 376.12698364 209.98950195 376.12698364 C209.53575195 376.58073364 209.08200195 377.03448364 208.61450195 377.50198364 C206.83372751 379.28275809 205.31529828 380.18212888 202.98950195 381.12698364 C201.99950195 381.12698364 201.00950195 381.12698364 199.98950195 381.12698364 C199.65950195 381.78698364 199.32950195 382.44698364 198.98950195 383.12698364 C196.08690384 384.50189854 194.2281149 385.12698364 190.98950195 385.12698364 C190.98950195 385.78698364 190.98950195 386.44698364 190.98950195 387.12698364 C187.13193689 389.28004321 184.4382041 390.51951619 179.98950195 390.12698364 C179.98950195 390.78698364 179.98950195 391.44698364 179.98950195 392.12698364 C178.53444837 392.65691056 177.07532068 393.17566254 175.61450195 393.68948364 C174.80239258 393.97952271 173.9902832 394.26956177 173.15356445 394.56838989 C170.98950195 395.12698364 170.98950195 395.12698364 168.98950195 394.12698364 C168.65950195 394.78698364 168.32950195 395.44698364 167.98950195 396.12698364 C165.98339844 396.98074341 165.98339844 396.98074341 163.3605957 397.81838989 C161.93070312 398.27568481 161.93070312 398.27568481 160.47192383 398.74221802 C159.46709961 399.05481567 158.46227539 399.36741333 157.42700195 399.68948364 C156.44924805 400.00594849 155.47149414 400.32241333 154.46411133 400.64846802 C148.93697903 402.39212462 143.75668784 403.58241433 137.98950195 404.12698364 C137.20575195 404.33323364 136.42200195 404.53948364 135.61450195 404.75198364 C133.98950195 405.12698364 133.98950195 405.12698364 131.98950195 404.12698364 C131.98950195 404.78698364 131.98950195 405.44698364 131.98950195 406.12698364 C130.00950195 405.79698364 128.02950195 405.46698364 125.98950195 405.12698364 C125.98950195 405.78698364 125.98950195 406.44698364 125.98950195 407.12698364 C125.18125977 407.18756958 124.37301758 407.24815552 123.5402832 407.31057739 C122.47165039 407.39436646 121.40301758 407.47815552 120.30200195 407.56448364 C119.24625977 407.64569458 118.19051758 407.72690552 117.1027832 407.81057739 C114.04953299 408.06468829 114.04953299 408.06468829 111.33325195 408.68948364 C108.07913634 409.29691856 105.22333179 408.6976595 101.98950195 408.12698364 C101.65950195 409.11698364 101.32950195 410.10698364 100.98950195 411.12698364 C99.5012207 412.52151489 99.5012207 412.52151489 97.67700195 413.93948364 C91.56841035 419.02790313 88.14934738 425.92668013 84.98950195 433.12698364 C84.98950195 433.78698364 84.98950195 434.44698364 84.98950195 435.12698364 C84.32950195 435.12698364 83.66950195 435.12698364 82.98950195 435.12698364 C83.31950195 436.11698364 83.64950195 437.10698364 83.98950195 438.12698364 C84.08479019 440.45874279 84.11936383 442.79328338 84.11450195 445.12698364 C84.11708008 446.36448364 84.1196582 447.60198364 84.12231445 448.87698364 C83.98950195 452.12698364 83.98950195 452.12698364 82.98950195 455.12698364 C83.64950195 455.12698364 84.30950195 455.12698364 84.98950195 455.12698364 C85.11325195 455.84885864 85.23700195 456.57073364 85.36450195 457.31448364 C85.8998944 460.12700964 85.8998944 460.12700964 87.05200195 462.62698364 C88.05615139 465.30471547 88.15145737 467.29276391 87.98950195 470.12698364 C88.64950195 470.45698364 89.30950195 470.78698364 89.98950195 471.12698364 C90.95952695 472.76317039 91.86639133 474.43709211 92.73950195 476.12698364 C95.17838458 480.7404365 97.84910642 485.01320116 100.88793945 489.25198364 C101.98950195 491.12698364 101.98950195 491.12698364 101.98950195 494.12698364 C102.64950195 494.45698364 103.30950195 494.78698364 103.98950195 495.12698364 C103.32950195 495.78698364 102.66950195 496.44698364 101.98950195 497.12698364 C101.3346582 496.88463989 100.67981445 496.64229614 100.00512695 496.39260864 C95.00312277 494.55571445 89.99215806 492.78252105 84.92700195 491.12698364 C79.51905922 489.34554368 74.24559123 487.31314467 68.98950195 485.12698364 C68.98950195 484.46698364 68.98950195 483.80698364 68.98950195 483.12698364 C67.99950195 483.45698364 67.00950195 483.78698364 65.98950195 484.12698364 C65.98950195 483.46698364 65.98950195 482.80698364 65.98950195 482.12698364 C65.28438477 482.17338989 64.57926758 482.21979614 63.8527832 482.26760864 C56.07180457 481.88545962 47.76039464 476.83181172 40.98950195 473.12698364 C40.65950195 472.46698364 40.32950195 471.80698364 39.98950195 471.12698364 C38.99950195 471.45698364 38.00950195 471.78698364 36.98950195 472.12698364 C34.3767184 471.00594825 31.93165777 469.82921742 29.42700195 468.50198364 C28.70536865 468.13025024 27.98373535 467.75851685 27.24023438 467.3755188 C25.8008044 466.63380379 24.36333493 465.88827011 22.92797852 465.13870239 C14.73920193 460.86486232 6.39239239 456.95964997 -2.01049805 453.12698364 C-2.01049805 452.46698364 -2.01049805 451.80698364 -2.01049805 451.12698364 C-2.84967773 450.87561646 -3.68885742 450.62424927 -4.5534668 450.36526489 C-8.34739687 449.00630915 -11.80019056 447.24528349 -15.32299805 445.31448364 C-15.97727783 444.96063599 -16.63155762 444.60678833 -17.30566406 444.24221802 C-22.22766273 441.57438905 -27.13341789 438.87612368 -32.01049805 436.12698364 C-32.01049805 435.46698364 -32.01049805 434.80698364 -32.01049805 434.12698364 C-32.60862305 433.98260864 -33.20674805 433.83823364 -33.82299805 433.68948364 C-35.57200209 433.23973975 -37.29726828 432.69806023 -39.01049805 432.12698364 C-39.01049805 431.46698364 -39.01049805 430.80698364 -39.01049805 430.12698364 C-39.52612305 430.04448364 -40.04174805 429.96198364 -40.57299805 429.87698364 C-44.88173296 428.55121906 -48.81288605 426.32459564 -52.01049805 423.12698364 C-52.34049805 422.46698364 -52.67049805 421.80698364 -53.01049805 421.12698364 C-53.56737305 421.00323364 -54.12424805 420.87948364 -54.69799805 420.75198364 C-57.97642309 419.86592282 -60.31299894 418.15010797 -63.01049805 416.12698364 C-63.01049805 415.46698364 -63.01049805 414.80698364 -63.01049805 414.12698364 C-64.66049805 413.79698364 -66.31049805 413.46698364 -68.01049805 413.12698364 C-68.01049805 412.46698364 -68.01049805 411.80698364 -68.01049805 411.12698364 C-68.71045898 410.88850708 -69.41041992 410.65003052 -70.1315918 410.40432739 C-73.52290389 408.89963397 -76.13478218 406.95164984 -79.07299805 404.68948364 C-80.60633789 403.51579224 -80.60633789 403.51579224 -82.1706543 402.31838989 C-83.10780273 401.59522583 -84.04495117 400.87206177 -85.01049805 400.12698364 C-85.79295898 399.57913208 -86.57541992 399.03128052 -87.3815918 398.46682739 C-88.18790039 397.80360474 -88.18790039 397.80360474 -89.01049805 397.12698364 C-89.01049805 396.46698364 -89.01049805 395.80698364 -89.01049805 395.12698364 C-90.66049805 394.46698364 -92.31049805 393.80698364 -94.01049805 393.12698364 C-94.01049805 392.46698364 -94.01049805 391.80698364 -94.01049805 391.12698364 C-95.18612305 390.75573364 -95.18612305 390.75573364 -96.38549805 390.37698364 C-99.47543792 388.9055837 -99.54709032 388.0537991 -101.01049805 385.12698364 C-102.65601766 384.40970586 -104.32472094 383.74373137 -106.01049805 383.12698364 C-107.82299805 381.62698364 -107.82299805 381.62698364 -109.01049805 380.12698364 C-109.01049805 379.46698364 -109.01049805 378.80698364 -109.01049805 378.12698364 C-109.67049805 378.12698364 -110.33049805 378.12698364 -111.01049805 378.12698364 C-111.01049805 377.46698364 -111.01049805 376.80698364 -111.01049805 376.12698364 C-112.09331055 375.78667114 -112.09331055 375.78667114 -113.19799805 375.43948364 C-116.59618108 373.8536649 -118.46280803 371.86575041 -121.01049805 369.12698364 C-121.93862305 368.24010864 -122.86674805 367.35323364 -123.82299805 366.43948364 C-126.01049805 364.12698364 -126.01049805 364.12698364 -126.01049805 362.12698364 C-127.00049805 361.79698364 -127.99049805 361.46698364 -129.01049805 361.12698364 C-134.01049805 355.66186736 -134.01049805 355.66186736 -134.01049805 353.12698364 C-134.90768555 352.78667114 -134.90768555 352.78667114 -135.82299805 352.43948364 C-138.60882533 350.76798727 -139.38587037 348.92134325 -141.01049805 346.12698364 C-141.89737305 345.24010864 -142.78424805 344.35323364 -143.69799805 343.43948364 C-144.46112305 342.67635864 -145.22424805 341.91323364 -146.01049805 341.12698364 C-146.01049805 340.46698364 -146.01049805 339.80698364 -146.01049805 339.12698364 C-147.00049805 338.79698364 -147.99049805 338.46698364 -149.01049805 338.12698364 C-149.01049805 337.46698364 -149.01049805 336.80698364 -149.01049805 336.12698364 C-149.67049805 335.46698364 -150.33049805 334.80698364 -151.01049805 334.12698364 C-151.67049805 333.46698364 -152.33049805 332.80698364 -153.01049805 332.12698364 C-153.01049805 331.46698364 -153.01049805 330.80698364 -153.01049805 330.12698364 C-153.67049805 330.12698364 -154.33049805 330.12698364 -155.01049805 330.12698364 C-156.51831055 328.26370239 -156.51831055 328.26370239 -158.13549805 325.81448364 C-158.67432617 325.01397583 -159.2131543 324.21346802 -159.76831055 323.38870239 C-161.01049805 321.12698364 -161.01049805 321.12698364 -161.01049805 318.12698364 C-162.00049805 317.79698364 -162.99049805 317.46698364 -164.01049805 317.12698364 C-165.3972168 314.94729614 -165.3972168 314.94729614 -166.69799805 312.25198364 C-167.13499023 311.36768677 -167.57198242 310.48338989 -168.0222168 309.57229614 C-169.01049805 307.12698364 -169.01049805 307.12698364 -169.01049805 304.12698364 C-170.00049805 303.79698364 -170.99049805 303.46698364 -172.01049805 303.12698364 C-173.6159668 300.32620239 -173.6159668 300.32620239 -175.19799805 296.81448364 C-175.99270508 295.08778442 -175.99270508 295.08778442 -176.8034668 293.32620239 C-178.01049805 290.12698364 -178.01049805 290.12698364 -178.01049805 286.12698364 C-178.67049805 285.79698364 -179.33049805 285.46698364 -180.01049805 285.12698364 C-183.50518085 278.12608443 -185.98769931 270.67147622 -188.01049805 263.12698364 C-188.2219043 262.41542114 -188.43331055 261.70385864 -188.65112305 260.97073364 C-189.01049805 259.12698364 -189.01049805 259.12698364 -188.01049805 257.12698364 C-188.67049805 257.12698364 -189.33049805 257.12698364 -190.01049805 257.12698364 C-191.03872183 252.20619841 -191.76726931 247.25357581 -192.51049805 242.28323364 C-192.80470263 240.42606718 -193.12548286 238.57218476 -193.50708008 236.73098755 C-195.25237078 227.70321322 -195.16912808 218.48742174 -195.14086914 209.32717896 C-195.13545236 207.23433369 -195.14087781 205.1416979 -195.1472168 203.04885864 C-195.14655683 201.70250401 -195.14527736 200.3561495 -195.14331055 199.00979614 C-195.14218262 197.80726196 -195.14105469 196.60472778 -195.13989258 195.36575317 C-195.02470705 192.48263761 -194.61625944 189.93625495 -194.01049805 187.12698364 C-194.0259668 185.5317688 -194.0259668 185.5317688 -194.04174805 183.90432739 C-194.00427235 179.374452 -193.30630845 175.13813548 -192.51049805 170.68948364 C-192.36741211 169.86255005 -192.22432617 169.03561646 -192.0769043 168.18362427 C-191.72665141 166.16383263 -191.36930508 164.14527322 -191.01049805 162.12698364 C-190.35049805 162.12698364 -189.69049805 162.12698364 -189.01049805 162.12698364 C-189.21674805 161.44635864 -189.42299805 160.76573364 -189.63549805 160.06448364 C-190.01894266 157.06083419 -189.60413077 155.17849977 -188.67456055 152.33401489 C-187.82924039 149.52456849 -187.24903154 146.68325836 -186.63549805 143.81448364 C-185.31065436 137.95407816 -183.37075462 132.63424898 -181.01049805 127.12698364 C-180.68049805 126.13698364 -180.35049805 125.14698364 -180.01049805 124.12698364 C-179.35049805 124.12698364 -178.69049805 124.12698364 -178.01049805 124.12698364 C-178.34049805 123.13698364 -178.67049805 122.14698364 -179.01049805 121.12698364 C-178.1550293 118.96292114 -178.1550293 118.96292114 -176.82299805 116.50198364 C-174.34178634 111.78906754 -172.12364708 107.01437862 -170.01049805 102.12698364 C-169.35049805 102.12698364 -168.69049805 102.12698364 -168.01049805 102.12698364 C-167.93702148 101.45280396 -167.86354492 100.77862427 -167.7878418 100.08401489 C-166.7514616 96.14160378 -164.79826267 93.1959108 -162.57299805 89.81448364 C-162.16500977 89.16930786 -161.75702148 88.52413208 -161.33666992 87.85940552 C-160.28736509 86.24179856 -159.15490863 84.6787624 -158.01049805 83.12698364 C-157.35049805 83.12698364 -156.69049805 83.12698364 -156.01049805 83.12698364 C-155.94862305 82.59073364 -155.88674805 82.05448364 -155.82299805 81.50198364 C-154.61014541 77.95672208 -152.56438879 75.86774444 -150.01049805 73.12698364 C-149.35049805 73.12698364 -148.69049805 73.12698364 -148.01049805 73.12698364 C-147.7475293 72.54690552 -147.48456055 71.96682739 -147.21362305 71.36917114 C-143.92548939 65.24128569 -136.63070718 56.33372002 -130.01049805 54.12698364 C-129.51549805 53.13698364 -129.51549805 53.13698364 -129.01049805 52.12698364 C-128.35049805 52.12698364 -127.69049805 52.12698364 -127.01049805 52.12698364 C-126.68049805 51.13698364 -126.35049805 50.14698364 -126.01049805 49.12698364 C-120.66166084 44.12698364 -120.66166084 44.12698364 -117.01049805 44.12698364 C-117.01049805 43.46698364 -117.01049805 42.80698364 -117.01049805 42.12698364 C-115.12996863 40.67504 -113.17912956 39.3133376 -111.19799805 38.00198364 C-110.11905273 37.27753052 -109.04010742 36.55307739 -107.9284668 35.80667114 C-105.01049805 34.12698364 -105.01049805 34.12698364 -102.01049805 34.12698364 C-102.01049805 33.46698364 -102.01049805 32.80698364 -102.01049805 32.12698364 C-100.41017668 31.28628949 -98.80508633 30.4546686 -97.19799805 29.62698364 C-96.30467773 29.16292114 -95.41135742 28.69885864 -94.4909668 28.22073364 C-92.01049805 27.12698364 -92.01049805 27.12698364 -89.01049805 27.12698364 C-88.68049805 26.46698364 -88.35049805 25.80698364 -88.01049805 25.12698364 C-85.44683583 23.66955923 -82.89629077 22.31523953 -80.26049805 21.00198364 C-79.5437793 20.62944458 -78.82706055 20.25690552 -78.08862305 19.87307739 C-74.27349212 17.95849882 -71.39258961 16.59216144 -67.01049805 17.12698364 C-66.68049805 16.46698364 -66.35049805 15.80698364 -66.01049805 15.12698364 C-65.02049805 14.79698364 -64.03049805 14.46698364 -63.01049805 14.12698364 C-62.02049805 14.62198364 -62.02049805 14.62198364 -61.01049805 15.12698364 C-61.01049805 14.46698364 -61.01049805 13.80698364 -61.01049805 13.12698364 C-60.39303711 12.94522583 -59.77557617 12.76346802 -59.1394043 12.57620239 C-54.88028355 11.3120798 -50.64648242 10.01837576 -46.44799805 8.56448364 C-40.85503049 6.68043284 -35.22947294 5.43304915 -29.38549805 4.62698364 C-26.00229424 4.21560477 -26.00229424 4.21560477 -22.82299805 3.12698364 C-18.39180871 1.96470447 -14.14586927 1.65349956 -9.5847168 1.37307739 C-6.1369009 1.04346829 -3.59555421 0.00146596 0 0 Z " fill="#012160" transform="translate(195.010498046875,0.873016357421875)"/>
<path d="M0 0 C0.66 0 1.32 0 2 0 C0.52698632 3.40316954 -1.38262568 5.64005372 -3.9921875 8.2578125 C-4.77980469 9.04800781 -5.56742188 9.83820312 -6.37890625 10.65234375 C-7.20261719 11.46832031 -8.02632812 12.28429687 -8.875 13.125 C-9.69097656 13.94871094 -10.50695313 14.77242187 -11.34765625 15.62109375 C-12.13785156 16.40871094 -12.92804687 17.19632813 -13.7421875 18.0078125 C-14.4626123 18.72598145 -15.18303711 19.44415039 -15.92529297 20.18408203 C-17.88421724 21.89865943 -19.62306611 22.97117787 -22 24 C-21.505 22.515 -21.505 22.515 -21 21 C-20.34 21 -19.68 21 -19 21 C-18.60554688 20.12988281 -18.60554688 20.12988281 -18.203125 19.2421875 C-14.91499134 13.11430204 -7.62020913 4.20673638 -1 2 C-0.67 1.34 -0.34 0.68 0 0 Z " fill="#4B628C" transform="translate(66,53)"/>
<path d="M0 0 C0.33 0 0.66 0 1 0 C1 3.3 1 6.6 1 10 C0.01 10.33 -0.98 10.66 -2 11 C-1.34 7.37 -0.68 3.74 0 0 Z " fill="#6B7C96" transform="translate(3,172)"/>
<path d="" fill="#FFFFFF" transform="translate(0,0)"/>
</svg>
