<?xml version="1.0" encoding="UTF-8"?>
<svg version="1.1" xmlns="http://www.w3.org/2000/svg" width="3600" height="3600">
<path d="M0 0 C4.6081134 0.00008062 9.21612602 -0.00677465 13.82421875 -0.02050781 C55.33172454 -0.14207137 96.74730491 0.90871341 138.15332031 3.93530273 C139.30598389 4.01800415 140.45864746 4.10070557 141.64624023 4.18591309 C203.90013555 8.69016304 265.92680638 16.29942794 327.21582031 28.18530273 C328.15844727 28.36772522 329.10107422 28.55014771 330.07226562 28.73809814 C376.71393627 37.79977931 422.81571912 49.16128594 468.21582031 63.18530273 C469.37195831 63.54081207 469.37195831 63.54081207 470.55145264 63.90350342 C507.49436084 75.27482047 543.82238579 88.64027555 579.21582031 104.18530273 C580.16766205 104.60175049 580.16766205 104.60175049 581.13873291 105.02661133 C613.25346148 119.086791 645.01354834 134.35397351 675.21582031 152.18530273 C676.88953824 153.16265264 678.56327141 154.1399767 680.23742676 155.11657715 C692.84131068 162.47545864 705.34594298 169.96255705 717.50195312 178.04614258 C719.0657697 179.08556824 720.6365365 180.11451789 722.20800781 181.14233398 C743.88945269 195.40644246 764.74658852 210.87687417 785.29931641 226.7097168 C787.08837782 228.08718013 788.88001834 229.46119159 790.67285156 230.83374023 C807.34488135 243.60550132 823.68781441 256.73611302 839.68041992 270.35107422 C843.02961642 273.19839207 846.42148944 275.98529248 849.84082031 278.74780273 C854.60389249 282.62343206 859.14946281 286.69764562 863.66894531 290.85327148 C865.8052378 292.80935525 867.96362689 294.72717971 870.15332031 296.62280273 C874.04940913 300.008974 877.85001267 303.49638245 881.64648438 306.99316406 C884.87254645 309.96258446 888.12721812 312.89594744 891.40332031 315.81030273 C895.35745732 319.3532095 899.12247383 323.03762119 902.81738281 326.84936523 C904.73435349 328.71638227 906.67218284 330.44613526 908.70410156 332.18139648 C914.08577539 336.85436222 919.0888193 341.90861545 924.1159668 346.95507812 C925.77509351 348.61956551 927.43950083 350.2786372 929.10449219 351.93725586 C934.17614187 357.00606476 939.15397503 362.10817076 943.81323242 367.56445312 C945.67564332 369.71668044 947.67375776 371.70419728 949.71582031 373.68530273 C953.08682097 377.0165108 956.26096061 380.43641902 959.34472656 384.03295898 C961.5466186 386.56582436 963.81777857 389.02862796 966.09082031 391.49780273 C970.14423385 395.94131923 973.97765908 400.5112837 977.75097656 405.19311523 C980.05545373 407.99062634 982.42038301 410.71659647 984.81591797 413.43554688 C991.17585844 420.66223863 997.11352367 428.12147358 1002.90332031 435.81030273 C1005.68483 439.5035662 1008.5318317 443.14019011 1011.3972168 446.76855469 C1069.59787047 520.65012964 1113.09266985 607.17426775 1166.46582031 849.37280273 C1166.58165466 850.586586 1166.58165466 850.586586 1166.6998291 851.82489014 C1169.9071566 886.00696106 1170.56950242 920.27534538 1170.47397232 954.58486557 C1170.46568299 957.67397749 1170.4602898 960.76308431 1170.45541382 963.85220337 C1170.29563122 1052.60810895 1170.29563122 1052.60810895 1163.21582031 1081.18530273 C1162.83466064 1082.82402344 1162.83466064 1082.82402344 1162.44580078 1084.49584961 C1153.23538245 1124.09330721 1137.56749921 1163.48146426 1110.21582031 1194.18530273 C1109.35601563 1195.16499023 1108.49621094 1196.14467773 1107.61035156 1197.15405273 C1081.98272977 1225.99482604 1047.11329531 1245.95425763 1008.21582031 1249.18530273 C977.67441767 1250.61312521 945.54315324 1246.02302857 921.54394531 1225.32983398 C920.77566406 1224.62213867 920.00738281 1223.91444336 919.21582031 1223.18530273 C918.30316406 1222.36416992 917.39050781 1221.54303711 916.45019531 1220.69702148 C902.31933845 1207.35764704 894.13988781 1190.38597538 893.03222656 1170.96655273 C892.82566591 1160.76002615 894.14439474 1151.54264111 897.75488281 1141.97827148 C898.01464905 1141.28873383 898.27441528 1140.59919617 898.54205322 1139.88876343 C901.57533096 1132.01507162 905.1795374 1124.41679964 908.79089355 1116.79580688 C924.7501449 1083.03473608 940.07619159 1047.29557104 940.45410156 1009.32202148 C940.46879234 1008.08981621 940.46879234 1008.08981621 940.48377991 1006.8327179 C940.66876511 987.25847439 940.09788054 968.44583304 936.21582031 949.18530273 C936.01214844 948.15695312 935.80847656 947.12860352 935.59863281 946.0690918 C924.92122335 893.85194582 900.38024682 847.02087456 865.21582031 807.18530273 C864.56000977 806.4419165 863.90419922 805.69853027 863.22851562 804.93261719 C852.33845194 792.70457001 840.90390416 780.31650558 827.91894531 770.27905273 C825.87467333 768.69562819 823.90995568 767.08642469 821.95019531 765.40405273 C800.14449163 746.85468311 774.94605498 731.49735275 749.1796875 719.13256836 C747.20722229 718.18115551 745.24659637 717.2080443 743.28613281 716.23217773 C654.81828064 672.74397824 548.79612023 669.93746179 456.21582031 701.18530273 C395.33663025 722.51669311 341.69810813 757.87124149 296.06488037 803.16101074 C295.05765799 804.16019135 294.04896001 805.15788714 293.03863525 806.15393066 C286.29211373 812.8151672 280.11839261 819.76397101 274.21582031 827.18530273 C272.65656226 829.02139415 271.09478099 830.85535237 269.52832031 832.68530273 C253.217792 852.29827187 239.34196683 873.70743018 227.30224609 896.17260742 C226.29143337 898.04522318 225.25699062 899.9019658 224.21191406 901.75561523 C196.72637569 951.39616332 181.88357387 1008.86701183 177.21582031 1065.18530273 C177.15797363 1065.86270508 177.10012695 1066.54010742 177.04052734 1067.23803711 C169.0797708 1165.2238476 197.95804155 1262.38365878 275.77490234 1370.68823242 C277.0957837 1372.24259581 278.42897548 1373.78647256 279.76269531 1375.32983398 C282.20528395 1378.17303827 284.55799947 1381.07412897 286.90332031 1383.99780273 C290.09750326 1387.92647695 293.42636299 1391.55619546 297.09863281 1395.04077148 C298.92856153 1396.89433397 300.61105976 1398.78817878 302.30566406 1400.76342773 C306.84957792 1405.99557535 311.74476013 1410.86017458 316.65332031 1415.74780273 C317.55630859 1416.6546582 318.45929687 1417.56151367 319.38964844 1418.49584961 C323.9470297 1423.04663076 328.5557949 1427.46492689 333.4440918 1431.65869141 C336.0364833 1433.89242767 338.52431599 1436.2279015 341.02832031 1438.56030273 C345.67620573 1442.85405654 350.45998379 1446.92062114 355.39160156 1450.88842773 C357.87808756 1452.91063211 360.3186783 1454.97692152 362.74780273 1457.06738281 C370.26921495 1463.52599931 378.07421615 1469.57015426 386.00195312 1475.52026367 C388.12993149 1477.12070616 390.24729676 1478.73439495 392.36425781 1480.34936523 C413.72294855 1496.49641837 436.39884904 1511.19020849 459.21582031 1525.18530273 C459.83908203 1525.5686377 460.46234375 1525.95197266 461.10449219 1526.34692383 C474.14340572 1534.3392949 487.48484311 1541.82853137 500.80566406 1549.33764648 C536.00467286 1569.22609926 569.73917198 1592.85959207 581.18066406 1633.62280273 C588.80611494 1666.23302586 575.25160288 1697.6789512 560.21582031 1726.18530273 C559.70277344 1727.17916992 559.18972656 1728.17303711 558.66113281 1729.19702148 C550.3023316 1745.03356107 539.3149483 1759.06371322 527.21582031 1772.18530273 C526.46300781 1773.04124023 525.71019531 1773.89717773 524.93457031 1774.77905273 C520.32145568 1780.02410087 515.62008359 1784.76523049 510.21582031 1789.18530273 C509.69777832 1789.61568848 509.17973633 1790.04607422 508.64599609 1790.48950195 C482.20349589 1812.41724784 452.76063289 1827.38489189 420.21582031 1838.18530273 C419.35859375 1838.47002441 418.50136719 1838.75474609 417.61816406 1839.0480957 C380.77165299 1851.00251151 340.799229 1855.6082519 302.40332031 1859.43530273 C301.26718292 1859.55100113 301.26718292 1859.55100113 300.10809326 1859.66903687 C268.4141127 1862.84657246 236.67590793 1863.56351623 204.84568787 1863.50315857 C201.85313796 1863.49771139 198.86059598 1863.49534848 195.86804199 1863.49328613 C164.88189953 1863.46006032 134.05462587 1862.79785743 103.14782715 1860.40991211 C100.22605392 1860.18608669 97.30366702 1859.97327662 94.38085938 1859.76342773 C6.03990262 1853.36541709 -81.87732565 1839.83483865 -211.36539268 1815.40601444 C-212.14586779 1815.2537411 -212.92634289 1815.10146776 -213.73046875 1814.94458008 C-214.50117014 1814.79420257 -215.27187153 1814.64382505 -216.06592751 1814.48889065 C-222.22092043 1813.29009124 -228.38157613 1812.12340385 -234.54368591 1810.9617157 C-271.27195476 1804.01289318 -307.22308552 1794.80782267 -343.29022217 1785.08094788 C-359.45288282 1780.72330502 -375.64460928 1776.48031083 -391.84623718 1772.27013397 C-394.09886654 1771.68473443 -396.35138121 1771.09889515 -398.60388184 1770.51300049 C-476.12379753 1750.35559178 -553.80497713 1731.00992397 -1043.59667969 1655.62280273 C-1044.77781845 1655.5915329 -1044.77781845 1655.5915329 -1045.9828186 1655.55963135 C-1127.42809672 1653.4463398 -1209.90982194 1658.59486316 -1425.78417969 1737.18530273 C-1426.36748047 1737.55703613 -1426.95078125 1737.92876953 -1427.55175781 1738.31176758 C-1431.01287837 1740.53275739 -1434.40969517 1742.8352153 -1437.78417969 1745.18530273 C-1438.32171875 1745.5583252 -1438.85925781 1745.93134766 -1439.41308594 1746.31567383 C-1469.26191791 1767.09596829 -1497.27003914 1791.52353973 -1519.78417969 1820.18530273 C-1520.63880592 1821.24848053 -1521.49432039 1822.31094476 -1522.35058594 1823.37280273 C-1534.99965667 1839.14434275 -1547.72183368 1856.06061072 -1556.78417969 1874.18530273 C-1587.29308363 1871.1101347 -1619.76405841 1847.18400776 -1642.78417969 1828.18530273 C-1643.65236328 1827.46938965 -1643.65236328 1827.46938965 -1644.53808594 1826.73901367 C-1658.15310177 1815.41484711 -1670.95105582 1803.22960812 -1681.78417969 1789.18530273 C-1682.78712645 1787.93323147 -1683.79110864 1786.6819892 -1684.79589844 1785.43139648 C-1693.15308425 1774.90948044 -1700.14309505 1763.85261104 -1706.78417969 1752.18530273 C-1707.15881348 1751.54447754 -1707.53344727 1750.90365234 -1707.91943359 1750.2434082 C-1726.5041925 1718.43739426 -1735.95757997 1680.54502135 -1739.78417969 1644.18530273 C-1739.87844238 1643.36312256 -1739.97270508 1642.54094238 -1740.06982422 1641.69384766 C-1741.15057738 1630.95688396 -1741.02804808 1620.15258825 -1741.03417969 1609.37280273 C-1741.03485443 1608.30628479 -1741.03552917 1607.23976685 -1741.03622437 1606.14093018 C-1740.99881448 1568.79467948 -1735.61208747 1532.46288985 -1726.78417969 1496.18530273 C-1726.5023584 1495.02659668 -1726.22053711 1493.86789062 -1725.93017578 1492.67407227 C-1720.87184218 1472.20332296 -1714.42705794 1452.30129235 -1707.54333496 1432.38531494 C-1706.81303342 1430.26892011 -1706.08734788 1428.15100566 -1705.36328125 1426.0324707 C-1691.96387119 1386.87732779 -1676.798113 1348.33851303 -1660.78417969 1310.18530273 C-1660.39060272 1309.24663361 -1660.39060272 1309.24663361 -1659.98907471 1308.28900146 C-1656.32455088 1299.55699176 -1652.57654572 1290.86245469 -1648.78417969 1282.18530273 C-1648.44344421 1281.40521851 -1648.10270874 1280.62513428 -1647.75164795 1279.82141113 C-1634.33126404 1249.1129864 -1620.44288509 1218.68875415 -1605.84277344 1188.52124023 C-1603.9440439 1184.59629419 -1602.05838018 1180.66589941 -1600.19433594 1176.72436523 C-1588.73996646 1152.52053426 -1576.863338 1128.4527226 -1564.20751953 1104.85229492 C-1562.41480853 1101.49319116 -1560.64096764 1098.12422342 -1558.86621094 1094.75561523 C-1551.87410135 1081.49909203 -1544.81978812 1068.29674107 -1537.38427734 1055.28173828 C-1533.78593417 1048.98154251 -1530.2939456 1042.63175485 -1526.84667969 1036.24780273 C-1520.99165654 1025.43704159 -1514.81118969 1014.82948256 -1508.57519531 1004.23510742 C-1506.18024616 1000.15690339 -1503.80490833 996.06741996 -1501.42871094 991.97827148 C-1485.6908798 964.91476055 -1469.36782602 938.21303509 -1452.484375 911.84887695 C-1450.79162588 909.19696815 -1449.1103712 906.53812577 -1447.43261719 903.87670898 C-1438.80356868 890.20616502 -1429.88806077 876.74205545 -1420.8828125 863.31787109 C-1418.78931252 860.19296437 -1416.70391471 857.06277944 -1414.62011719 853.93139648 C-1411.37202491 849.05726243 -1408.09533435 844.20428579 -1404.78417969 839.37280273 C-1404.24148438 838.58075439 -1403.69878906 837.78870605 -1403.13964844 836.97265625 C-1392.38777947 821.30447699 -1381.53755323 805.71566258 -1370.35644531 790.3503418 C-1368.75913621 788.1508174 -1367.16897886 785.94629799 -1365.58105469 783.73999023 C-1354.02542059 767.68477081 -1342.31876284 751.75561608 -1330.24658203 736.08422852 C-1328.90913202 734.34755302 -1327.57449736 732.60876926 -1326.24121094 730.86889648 C-1323.76132082 727.63654378 -1321.27439546 724.40969977 -1318.78417969 721.18530273 C-1318.26243164 720.50886719 -1317.74068359 719.83243164 -1317.203125 719.13549805 C-1310.39776284 710.31954996 -1303.52492326 701.57063881 -1296.47290039 692.95043945 C-1292.9789924 688.67495027 -1289.55075785 684.35476485 -1286.15917969 679.99780273 C-1281.71388311 674.29645424 -1277.09497109 668.76500473 -1272.40136719 663.26733398 C-1269.98921445 660.43847261 -1267.62997971 657.56955152 -1265.28417969 654.68530273 C-1257.30256971 644.88904608 -1249.05742482 635.31225484 -1240.82324219 625.72827148 C-1238.79048744 623.36151749 -1236.76500053 620.9888309 -1234.74511719 618.61108398 C-1229.03763948 611.90208465 -1223.22127077 605.32422732 -1217.24121094 598.85717773 C-1214.61392723 596.00016334 -1212.05528278 593.09230772 -1209.51074219 590.16186523 C-1202.87953506 582.57048332 -1196.04040693 575.16109913 -1189.21679688 567.74291992 C-1188.27168247 566.71534155 -1187.32701117 565.68735542 -1186.3828125 564.65893555 C-1182.86132915 560.82377797 -1179.32645873 557.0012564 -1175.78417969 553.18530273 C-1175.19540039 552.54995605 -1174.60662109 551.91460938 -1174 551.26000977 C-1165.30947435 541.89800557 -1156.44590022 532.74283063 -1147.3425293 523.78051758 C-1143.2113955 519.69581096 -1139.28045871 515.52966649 -1135.49291992 511.12548828 C-1132.58246603 507.82081946 -1129.4691091 504.72577776 -1126.34667969 501.62280273 C-1125.72986328 501.00211914 -1125.11304688 500.38143555 -1124.47753906 499.74194336 C-1121.39773205 496.66854594 -1118.27200306 493.70807035 -1114.96777344 490.87670898 C-1109.80535114 486.41714287 -1105.0708481 481.54064645 -1100.28417969 476.68530273 C-1094.81899493 471.14170787 -1089.36092961 465.69017602 -1083.44628906 460.62475586 C-1081.45828025 458.9030608 -1079.6104565 457.07680371 -1077.78417969 455.18530273 C-1074.72300716 452.08284271 -1071.55275701 449.20423849 -1068.24902344 446.36499023 C-1064.86432941 443.37186937 -1061.5786881 440.27702875 -1058.28417969 437.18530273 C-1053.80484506 432.98551623 -1049.31562448 428.81835008 -1044.65917969 424.81420898 C-1042.39666787 422.84865185 -1040.18727286 420.82856964 -1037.97167969 418.81030273 C-1034.50887886 415.68107447 -1030.97738965 412.68029925 -1027.34667969 409.74780273 C-1023.54330466 406.67193685 -1019.88335317 403.49777107 -1016.28417969 400.18530273 C-1011.89523222 396.15020252 -1007.37555203 392.34699969 -1002.73730469 388.60327148 C-999.35059187 385.83028837 -996.03476226 382.98290564 -992.72167969 380.12280273 C-988.06272673 376.10879135 -983.35698889 372.18112988 -978.53027344 368.36889648 C-975.68360421 366.10532878 -972.86591266 363.80893319 -970.04980469 361.50756836 C-963.52018315 356.17463498 -956.9374435 350.93848362 -950.23339844 345.82592773 C-946.9632655 343.33093032 -943.72291599 340.79882642 -940.48291016 338.26489258 C-924.91010224 326.09516857 -909.0696476 314.30615075 -893.01074219 302.78686523 C-890.74279753 301.15553662 -888.4813843 299.51552315 -886.22167969 297.87280273 C-885.45742676 297.31802246 -884.69317383 296.76324219 -883.90576172 296.19165039 C-882.49425665 295.16669094 -881.08364005 294.14050568 -879.67431641 293.11254883 C-865.44943142 282.80182481 -850.77696125 273.11258755 -836.15917969 263.37280273 C-835.23319977 262.75557343 -834.30721985 262.13834412 -833.35317993 261.50241089 C-819.93313569 252.56174981 -806.47442387 243.70840093 -792.78417969 235.18530273 C-791.10961108 234.13466403 -789.4351339 233.08387958 -787.76074219 232.03295898 C-757.75459733 213.266288 -727.06013257 195.53142665 -695.85644531 178.8347168 C-692.67516712 177.12677691 -689.5026212 175.40339046 -686.33105469 173.67749023 C-659.44085884 159.08916814 -632.08180952 145.41691961 -604.23144531 132.75512695 C-600.70744031 131.15035697 -597.19097514 129.52981412 -593.67480469 127.90795898 C-535.8893438 101.34749062 -476.29329499 78.71624316 -415.78417969 59.18530273 C-414.93853455 58.91202148 -414.0928894 58.63874023 -413.22161865 58.35717773 C-384.29267231 49.02400221 -355.16989454 40.59638496 -325.74884033 32.95605469 C-322.80498501 32.1907117 -319.86265135 31.4197152 -316.92041016 30.64819336 C-291.03755821 23.88728356 -265.32345751 18.54954631 -238.78417969 15.18530273 C-237.84350647 15.06453369 -236.90283325 14.94376465 -235.93365479 14.81933594 C-190.42451194 8.98871521 -144.71757319 4.97149104 -98.90917969 2.43530273 C-97.84129211 2.37613678 -96.77340454 2.31697083 -95.67315674 2.25601196 C-88.37850614 1.85869289 -81.08228022 1.51236964 -73.78417969 1.18530273 C-72.76928467 1.13691254 -71.75438965 1.08852234 -70.70874023 1.03866577 C-47.15029141 -0.06145716 -23.57885125 -0.00213097 0 0 Z " fill="#002060" transform="translate(2025.7841796875,1318.814697265625)"/>
<path d="M0 0 C0.86728729 0.00060425 1.73457458 0.0012085 2.62814331 0.00183105 C103.73485427 0.19146178 204.45563465 32.61030707 285.625 93.1875 C286.29192871 93.68459473 286.95885742 94.18168945 287.64599609 94.69384766 C300.55435237 104.35529876 312.87067724 114.50444945 324.67578125 125.484375 C326.87927496 127.52750355 329.13687313 129.49650164 331.4140625 131.45703125 C336.03536043 135.48596728 340.3647256 139.78022675 344.6875 144.125 C345.45126953 144.88490234 346.21503906 145.64480469 347.00195312 146.42773438 C351.75117283 151.18507935 356.24733176 156.08866471 360.625 161.1875 C361.64659087 162.34408164 362.6699832 163.49907499 363.6953125 164.65234375 C371.23047602 173.19138157 378.28422242 182.01210804 385.09472656 191.13818359 C386.53198652 193.06293791 387.9799302 194.97918475 389.4296875 196.89453125 C402.58957876 214.41021129 413.8474955 233.13729147 424.625 252.1875 C425.0473291 252.93 425.4696582 253.6725 425.90478516 254.4375 C470.01089261 332.61449489 487.19683285 426.08455707 465.75 610.1875 C445.4491319 681.8430979 410.31953242 747.62491951 360.625 803.1875 C359.95114258 803.94812744 359.95114258 803.94812744 359.26367188 804.72412109 C352.09795389 812.78955852 344.48976857 820.42455513 336.875 828.0625 C336.37913391 828.56104492 335.88326782 829.05958984 335.37237549 829.57324219 C329.63761453 835.33148974 323.82765483 840.93192092 317.625 846.1875 C316.61536037 847.06450008 315.60621207 847.94206625 314.59765625 848.8203125 C283.19308069 875.71443224 248.4710042 897.57705918 211.625 916.1875 C210.75117676 916.62980957 209.87735352 917.07211914 208.97705078 917.52783203 C164.70777722 939.75088946 115.61893725 953.66582958 66.625 960.375 C64.9378186 960.60751465 64.9378186 960.60751465 63.21655273 960.84472656 C42.41851393 963.53401449 21.64771663 964.57150917 0.6875 964.5 C-1.03738647 964.49676727 -1.03738647 964.49676727 -2.79711914 964.49346924 C-22.14300463 964.43564949 -41.19183356 963.72706829 -60.375 961.1875 C-61.08563599 961.09511047 -61.79627197 961.00272095 -62.52844238 960.90753174 C-154.7105786 948.82170089 -240.69484979 910.21401101 -345.25 819.4375 C-346.04688232 818.64529053 -346.84376465 817.85308105 -347.66479492 817.03686523 C-352.44072458 812.24790986 -356.97867576 807.3253403 -361.375 802.1875 C-362.32441532 801.1044986 -363.27488413 800.02241955 -364.2265625 798.94140625 C-371.46006574 790.64783176 -378.23484766 782.06199206 -384.82861328 773.25292969 C-386.27388495 771.3225542 -387.72830235 769.39938628 -389.18359375 767.4765625 C-429.61758701 713.64242274 -456.80144691 650.72023213 -471.375 585.1875 C-471.62330566 584.07294434 -471.87161133 582.95838867 -472.12744141 581.81005859 C-477.9787183 554.93797824 -481.47645908 526.951877 -481.578125 499.4453125 C-481.58518463 498.17113464 -481.59224426 496.89695679 -481.59951782 495.58416748 C-481.61904696 491.49360581 -481.62420984 487.40310392 -481.625 483.3125 C-481.62529457 482.61541176 -481.62558914 481.91832352 -481.62589264 481.20011139 C-481.62729161 460.71711143 -481.45968411 440.48750341 -478.375 420.1875 C-478.16333977 418.75084832 -477.95192685 417.3141602 -477.74072266 415.87744141 C-464.34553724 325.80343702 -428.1413594 242.12349278 -369.375 172.1875 C-368.94960937 171.67719238 -368.52421875 171.16688477 -368.0859375 170.64111328 C-355.28532786 155.31238324 -341.70502446 140.0723279 -326.52734375 127.05859375 C-323.99447838 124.85670171 -321.53167478 122.58554174 -319.0625 120.3125 C-314.17125335 115.86226739 -309.17414594 111.6000952 -303.99804688 107.48486328 C-302.86676006 106.58058258 -301.7408442 105.66955907 -300.61914062 104.75341797 C-278.85595779 86.9876695 -254.90958251 71.80478025 -230.375 58.1875 C-229.1698877 57.51267578 -229.1698877 57.51267578 -227.94042969 56.82421875 C-158.94501062 18.42575938 -78.67373744 -0.1027184 0 0 Z " fill="#002060" transform="translate(2946.375,330.8125)"/>
</svg>
